<?xml version="1.0"?>
<svg xmlns="http://www.w3.org/2000/svg" xmlns:xlink="http://www.w3.org/1999/xlink" viewBox="0 0 512 512" width="512" height="512"><linearGradient id="a" gradientUnits="userSpaceOnUse" x1="256" x2="256" y1="12" y2="490.602"><stop offset="0" stop-color="#00efd1"/><stop offset="1" stop-color="#00acea"/></linearGradient><path d="m459 38h-406a10 10 0 0 0 -10 10v416a10 10 0 0 0 10 10h406a10 10 0 0 0 10-10v-416a10 10 0 0 0 -10-10zm-317 416h-79v-84h79zm0-104h-79v-84h79zm0-104h-79v-84h79zm0-104h-79v-84h79zm104 312h-84v-84h84zm0-104h-84v-84h84zm0-104h-84v-84h84zm0-104h-84v-84h84zm104 312h-84v-84h84zm0-104h-84v-84h84zm0-104h-84v-84h84zm0-104h-84v-84h84zm99 312h-79v-84h79zm0-104h-79v-84h79zm0-104h-79v-84h79zm0-104h-79v-84h79z" fill="url(#a)"/></svg>
